<?xml version="1.0" standalone="no"?>
<!DOCTYPE svg PUBLIC "-//W3C//DTD SVG 20010904//EN"
 "http://www.w3.org/TR/2001/REC-SVG-20010904/DTD/svg10.dtd">
<svg version="1.0" xmlns="http://www.w3.org/2000/svg"
 width="225.000000pt" height="225.000000pt" viewBox="0 0 225.000000 225.000000"
 preserveAspectRatio="xMidYMid meet">

<g transform="translate(0.000000,225.000000) scale(0.100000,-0.100000)"
fill="#000000" stroke="none">
<path d="M980 2239 c-225 -26 -450 -133 -624 -299 -203 -192 -319 -429 -347
-704 -71 -703 524 -1298 1227 -1227 321 32 600 192 796 455 285 383 285 939 0
1322 -250 336 -633 501 -1052 453z m350 -144 c388 -82 689 -391 771 -790 7
-33 12 -114 12 -180 0 -66 -5 -147 -12 -180 -84 -408 -388 -712 -796 -796 -77
-16 -283 -16 -360 0 -408 84 -712 388 -796 796 -16 77 -16 283 0 360 84 407
402 726 796 794 128 23 265 21 385 -4z"/>
<path d="M320 1120 l0 -540 805 0 805 0 0 540 0 540 -805 0 -805 0 0 -540z
m1358 403 c-229 -215 -562 -513 -570 -511 -5 2 -140 127 -300 278 l-291 275
604 5 c332 3 605 4 607 4 2 -1 -21 -24 -50 -51z m-851 -357 l283 -267 348 318
c191 175 358 327 370 337 l22 19 0 -461 0 -462 -725 0 -725 0 0 462 0 462 73
-70 c39 -39 199 -191 354 -338z"/>
</g>
</svg>
