<?xml version="1.0" standalone="no"?>
<!DOCTYPE svg PUBLIC "-//W3C//DTD SVG 20010904//EN"
 "http://www.w3.org/TR/2001/REC-SVG-20010904/DTD/svg10.dtd">
<svg version="1.0" xmlns="http://www.w3.org/2000/svg"
 width="920.000000pt" height="512.000000pt" viewBox="0 0 920.000000 512.000000"
 preserveAspectRatio="xMidYMid meet">

<g transform="translate(0.000000,512.000000) scale(0.100000,-0.100000)"
fill="#000000" stroke="none">
<path d="M3005 5114 c-277 -42 -723 -414 -887 -739 -52 -102 -70 -189 -69
-325 3 -428 122 -871 366 -1361 240 -482 550 -905 979 -1335 296 -296 547
-503 857 -706 593 -389 1161 -600 1724 -639 210 -15 275 -6 418 55 222 96 537
410 676 676 61 118 84 195 84 285 1 59 -4 80 -30 130 -67 130 -211 289 -428
470 -161 134 -213 174 -390 292 -337 226 -525 293 -656 234 -103 -46 -187
-144 -365 -424 -130 -206 -190 -288 -229 -313 -25 -16 -29 -15 -158 49 -527
260 -1132 864 -1393 1391 -35 72 -64 133 -64 137 0 33 122 127 350 269 247
154 360 252 402 350 57 132 -11 321 -239 662 -183 274 -423 558 -583 691 -146
121 -257 167 -365 151z m131 -290 c158 -105 474 -478 671 -794 64 -102 139
-248 149 -292 12 -52 -59 -108 -452 -358 -198 -126 -301 -245 -320 -365 -10
-70 66 -251 198 -468 255 -421 707 -882 1145 -1168 127 -83 388 -214 455 -229
65 -14 133 2 205 49 95 61 147 129 358 461 54 85 122 179 151 209 62 62 62 62
191 2 294 -140 791 -531 963 -758 61 -81 64 -110 17 -208 -121 -252 -386 -526
-597 -616 -50 -22 -69 -24 -210 -24 -643 3 -1430 353 -2155 959 -146 122 -489
463 -611 606 -475 560 -797 1157 -928 1720 -69 302 -83 554 -37 673 79 201
347 467 601 597 98 50 135 51 206 4z"/>
</g>
</svg>
